<svg width="296" height="61" viewBox="0 0 296 61" fill="none" xmlns="http://www.w3.org/2000/svg">
<path d="M18.6634 13.1384H61.4148V18.9586H18.6634V13.1384ZM31.5792 30.0816H59.9295V35.7724H31.5792V30.0816ZM26.1546 52.3922H61.2857V58.2124H26.1546V52.3922ZM41.5244 32.539H47.5949V55.6903H41.5244V32.539ZM33.0645 0.786765L39.2642 1.49812C38.2309 8.7841 36.8747 15.6821 35.1957 22.192C33.5597 28.702 31.4931 34.6515 28.9961 40.0405C26.499 45.3865 23.4853 50.0857 19.955 54.1383C19.6536 53.7071 19.2016 53.1898 18.5988 52.5862C17.9961 51.9826 17.3718 51.4006 16.726 50.8402C16.1233 50.2366 15.5636 49.7408 15.047 49.3528C18.4912 45.8176 21.3757 41.571 23.7006 36.6131C26.0254 31.6552 27.9413 26.1368 29.4481 20.058C30.955 13.9791 32.1604 7.5554 33.0645 0.786765ZM16.2094 0.334084L21.8923 2.20947C20.4286 5.83091 18.7064 9.45234 16.726 13.0738C14.7886 16.6521 12.679 20.0364 10.3973 23.2267C8.11545 26.3739 5.74755 29.1547 3.29354 31.569C3.12133 31.0516 2.84148 30.4049 2.45401 29.6289C2.06653 28.8529 1.65753 28.0769 1.227 27.3008C0.796477 26.5248 0.387475 25.8781 0 25.3608C2.15264 23.3345 4.21917 21.0064 6.1996 18.3766C8.22309 15.7036 10.0959 12.8367 11.818 9.77568C13.5401 6.6716 15.0039 3.5244 16.2094 0.334084ZM9.68688 17.5359L15.499 11.7804L15.5636 11.8451V60.0231H9.68688V17.5359Z" fill="#3975CF"/>
<path d="M68.2602 7.83563H119.988V12.8798H68.2602V7.83563ZM64.7084 24.6494H123.217V29.6936H64.7084V24.6494ZM84.4696 9.90502H90.2171V27.4302H84.4696V9.90502ZM96.8688 9.90502H102.681V27.4302H96.8688V9.90502ZM71.2954 15.0785L76.268 13.2031C77.4305 14.6689 78.4853 16.3288 79.4324 18.1826C80.3796 19.9933 81.0469 21.61 81.4344 23.0327L76.1389 25.1668C75.7945 23.7441 75.1702 22.1058 74.2661 20.252C73.362 18.355 72.3718 16.6305 71.2954 15.0785ZM76.0743 2.08013L81.499 0.0754137C82.4892 1.067 83.4148 2.20947 84.2759 3.50284C85.1369 4.79621 85.7827 5.96024 86.2132 6.99494L80.5948 9.32301C80.2074 8.33142 79.5831 7.14583 78.722 5.76624C77.904 4.38665 77.0215 3.15794 76.0743 2.08013ZM111.141 12.8798L116.695 14.6258C115.704 16.4365 114.65 18.2473 113.53 20.058C112.454 21.8687 111.464 23.4207 110.56 24.7141L105.781 23.1621C106.383 22.2136 107.008 21.1573 107.654 19.9933C108.342 18.7862 108.988 17.5575 109.591 16.3072C110.194 15.0569 110.71 13.9145 111.141 12.8798ZM105.458 0.0107422L111.464 1.88613C110.603 3.22261 109.72 4.47287 108.816 5.6369C107.955 6.80093 107.137 7.83563 106.362 8.74099L100.937 6.99494C101.712 6.04647 102.53 4.90399 103.391 3.56751C104.252 2.23103 104.941 1.04544 105.458 0.0107422ZM74.0723 33.121H113.982V59.9584H107.524V37.9065H80.2719V60.1524H74.0723V33.121ZM77.5596 43.2093H110.366V47.8008H77.5596V43.2093ZM77.6242 53.2329H110.43V58.083H77.6242V53.2329Z" fill="#3975CF"/>
<path d="M130.971 27.1078L140.294 0H147.112L156.435 27.1078H150.809L143.785 4.3126H143.539L136.556 27.1078H130.971ZM135.735 21.7273V17.8665H152.287V21.7273H135.735Z" fill="#FAFCFE"/>
<path d="M158.358 27.1078V5.66799H162.958L162.671 14.9093H162.999C163.164 12.5545 163.492 10.6651 163.985 9.24128C164.505 7.81744 165.162 6.79063 165.957 6.16085C166.751 5.5037 167.641 5.17512 168.626 5.17512C169.092 5.17512 169.557 5.24357 170.023 5.38048C170.516 5.49001 170.995 5.66799 171.46 5.91442L171.173 11.5824C170.652 11.3086 170.146 11.1032 169.653 10.9663C169.16 10.8294 168.681 10.761 168.216 10.761C167.23 10.761 166.381 11.0895 165.669 11.7467C164.984 12.4039 164.451 13.3759 164.067 14.6628C163.711 15.9224 163.533 17.4558 163.533 19.2629V27.1078H158.358Z" fill="#FAFCFE"/>
<path d="M181.927 27.5596C179.709 27.5596 178.025 26.9709 176.875 25.7935C175.752 24.5887 175.191 22.7815 175.191 20.3719V9.8163H172.686V6.32514H173.302C174.616 6.18824 175.547 5.77751 176.095 5.09297C176.67 4.38105 177.012 3.32686 177.121 1.9304L177.204 0.903593H180.366V5.66799H185.623V9.93951H180.366V19.9612C180.366 21.0291 180.613 21.7957 181.106 22.2612C181.598 22.7267 182.256 22.9595 183.077 22.9595C183.488 22.9595 183.926 22.9047 184.391 22.7952C184.857 22.6583 185.268 22.4666 185.623 22.2202V26.9435C184.912 27.1625 184.254 27.3131 183.652 27.3953C183.05 27.5048 182.475 27.5596 181.927 27.5596Z" fill="#FAFCFE"/>
<path d="M195.179 27.6828C192.742 27.6828 190.949 26.8203 189.799 25.0952C188.676 23.3702 188.115 20.7005 188.115 17.0861V5.66799H193.331V17.045C193.331 19.2082 193.605 20.7552 194.152 21.6862C194.727 22.5898 195.617 23.0416 196.822 23.0416C197.616 23.0416 198.314 22.8499 198.917 22.4666C199.547 22.0832 200.081 21.5082 200.519 20.7415C200.984 19.9475 201.326 18.9344 201.545 17.7022C201.792 16.47 201.915 14.9914 201.915 13.2664V5.66799H207.131V27.1078H202.572L202.86 18.3593H202.572C202.353 20.5225 201.942 22.2886 201.34 23.6577C200.738 25.0268 199.93 26.0399 198.917 26.697C197.904 27.3542 196.658 27.6828 195.179 27.6828Z" fill="#FAFCFE"/>
<path d="M210.501 27.1078V5.66799H215.101L214.813 14.9093H215.142C215.306 12.5545 215.635 10.6651 216.128 9.24128C216.648 7.81744 217.305 6.79063 218.099 6.16085C218.893 5.5037 219.783 5.17512 220.769 5.17512C221.234 5.17512 221.7 5.24357 222.165 5.38048C222.658 5.49001 223.137 5.66799 223.603 5.91442L223.315 11.5824C222.795 11.3086 222.289 11.1032 221.796 10.9663C221.303 10.8294 220.824 10.761 220.358 10.761C219.372 10.761 218.524 11.0895 217.812 11.7467C217.127 12.4039 216.593 13.3759 216.21 14.6628C215.854 15.9224 215.676 17.4558 215.676 19.2629V27.1078H210.501Z" fill="#FAFCFE"/>
<path d="M132.572 59.5885V32.4807H140.499L147.235 53.633H147.317L153.93 32.4807H161.487V59.5885H156.6V37.738H156.518L149.453 59.5885H144.566L137.542 37.738H137.46V59.5885H132.572Z" fill="#FAFCFE"/>
<path d="M174.996 60.1635C173.134 60.1635 171.532 59.8897 170.191 59.342C168.876 58.767 167.795 57.9866 166.946 57.0009C166.097 55.9878 165.467 54.8241 165.056 53.5098C164.673 52.1954 164.481 50.7579 164.481 49.1972C164.481 47.6364 164.673 46.1578 165.056 44.7613C165.467 43.3649 166.083 42.1327 166.905 41.0648C167.754 39.9696 168.808 39.1207 170.067 38.5183C171.354 37.8886 172.874 37.5737 174.626 37.5737C176.297 37.5737 177.748 37.8612 178.98 38.4362C180.24 39.0112 181.253 39.8327 182.019 40.9005C182.813 41.941 183.347 43.1869 183.621 44.6381C183.922 46.062 183.963 47.6364 183.744 49.3614L167.726 49.6079V46.5275L179.843 46.3221L178.98 48.0882C179.09 46.7739 178.994 45.6512 178.693 44.7203C178.419 43.7893 177.94 43.0774 177.255 42.5845C176.598 42.0643 175.722 41.8041 174.626 41.8041C173.449 41.8041 172.477 42.1053 171.71 42.7077C170.971 43.3101 170.423 44.1453 170.067 45.2131C169.711 46.281 169.533 47.5406 169.533 48.9918C169.533 51.374 169.999 53.1675 170.93 54.3723C171.861 55.5497 173.244 56.1384 175.078 56.1384C175.954 56.1384 176.68 56.0152 177.255 55.7687C177.83 55.5223 178.282 55.18 178.61 54.7419C178.966 54.3038 179.199 53.8246 179.309 53.3044C179.445 52.7568 179.5 52.2091 179.473 51.6615L184.278 51.949C184.333 52.9895 184.196 54.0026 183.868 54.9884C183.539 55.9467 183.005 56.8229 182.266 57.617C181.526 58.3837 180.554 58.9998 179.35 59.4653C178.145 59.9307 176.694 60.1635 174.996 60.1635Z" fill="#FAFCFE"/>
<path d="M194.679 60.1635C193.146 60.1635 191.749 59.7528 190.49 58.9313C189.23 58.1099 188.217 56.864 187.45 55.1937C186.711 53.4961 186.341 51.3329 186.341 48.7043C186.341 46.2399 186.684 44.1863 187.368 42.5434C188.053 40.9005 189.011 39.6684 190.243 38.8469C191.475 37.9981 192.899 37.5737 194.515 37.5737C195.856 37.5737 197.02 37.8612 198.006 38.4362C199.019 39.0112 199.84 39.9011 200.47 41.1059C201.1 42.3107 201.538 43.8304 201.784 45.6649H202.154C202.017 44.5423 201.88 43.5018 201.743 42.5434C201.607 41.5851 201.511 40.6952 201.456 39.8737C201.401 39.0249 201.374 38.2308 201.374 37.4915V31.2485H206.59L206.549 51.0865L206.59 59.5885H201.949L202.154 52.6062H201.826C201.497 54.3038 201.018 55.714 200.388 56.8366C199.758 57.9319 198.964 58.767 198.006 59.342C197.075 59.8897 195.966 60.1635 194.679 60.1635ZM196.24 55.892C197.061 55.892 197.787 55.7003 198.417 55.3169C199.046 54.9336 199.58 54.4134 200.018 53.7562C200.456 53.099 200.785 52.3734 201.004 51.5794C201.251 50.7579 201.374 49.9228 201.374 49.0739V48.7864C201.374 48.1567 201.292 47.5132 201.127 46.856C200.99 46.1989 200.785 45.5828 200.511 45.0078C200.237 44.4328 199.895 43.9262 199.484 43.4881C199.074 43.0226 198.595 42.6667 198.047 42.4202C197.527 42.1464 196.938 42.0095 196.281 42.0095C195.322 42.0095 194.487 42.3107 193.775 42.9131C193.063 43.5155 192.53 44.3506 192.174 45.4185C191.818 46.459 191.64 47.6638 191.64 49.0329C191.64 50.3472 191.818 51.5246 192.174 52.5651C192.53 53.6056 193.05 54.427 193.734 55.0294C194.419 55.6044 195.254 55.892 196.24 55.892Z" fill="#FAFCFE"/>
<path d="M219.879 60.1635C218.017 60.1635 216.415 59.8897 215.073 59.342C213.759 58.767 212.677 57.9866 211.829 57.0009C210.98 55.9878 210.35 54.8241 209.939 53.5098C209.556 52.1954 209.364 50.7579 209.364 49.1972C209.364 47.6364 209.556 46.1578 209.939 44.7613C210.35 43.3649 210.966 42.1327 211.788 41.0648C212.636 39.9696 213.691 39.1207 214.95 38.5183C216.237 37.8886 217.757 37.5737 219.509 37.5737C221.179 37.5737 222.631 37.8612 223.863 38.4362C225.122 39.0112 226.135 39.8327 226.902 40.9005C227.696 41.941 228.23 43.1869 228.504 44.6381C228.805 46.062 228.846 47.6364 228.627 49.3614L212.609 49.6079V46.5275L224.725 46.3221L223.863 48.0882C223.972 46.7739 223.876 45.6512 223.575 44.7203C223.301 43.7893 222.822 43.0774 222.138 42.5845C221.481 42.0643 220.604 41.8041 219.509 41.8041C218.332 41.8041 217.36 42.1053 216.593 42.7077C215.854 43.3101 215.306 44.1453 214.95 45.2131C214.594 46.281 214.416 47.5406 214.416 48.9918C214.416 51.374 214.882 53.1675 215.813 54.3723C216.744 55.5497 218.126 56.1384 219.961 56.1384C220.837 56.1384 221.563 56.0152 222.138 55.7687C222.713 55.5223 223.165 55.18 223.493 54.7419C223.849 54.3038 224.082 53.8246 224.191 53.3044C224.328 52.7568 224.383 52.2091 224.356 51.6615L229.161 51.949C229.216 52.9895 229.079 54.0026 228.75 54.9884C228.422 55.9467 227.888 56.8229 227.149 57.617C226.409 58.3837 225.437 58.9998 224.232 59.4653C223.028 59.9307 221.576 60.1635 219.879 60.1635Z" fill="#FAFCFE"/>
<path d="M231.719 59.5885V38.1487H236.935V59.5885H231.719ZM234.306 36.0129C233.266 36.0129 232.472 35.7939 231.924 35.3558C231.404 34.9177 231.144 34.2879 231.144 33.4664C231.144 32.6176 231.418 31.9741 231.965 31.536C232.513 31.0979 233.293 30.8789 234.306 30.8789C235.347 30.8789 236.127 31.1116 236.648 31.5771C237.195 32.0152 237.469 32.645 237.469 33.4664C237.469 34.2879 237.195 34.9177 236.648 35.3558C236.127 35.7939 235.347 36.0129 234.306 36.0129Z" fill="#FAFCFE"/>
<path d="M240.302 59.5885V38.1487H244.902L244.615 47.39H244.944C245.108 45.0352 245.436 43.1458 245.929 41.722C246.45 40.2981 247.107 39.2713 247.901 38.6416C248.695 37.9844 249.585 37.6558 250.57 37.6558C251.036 37.6558 251.501 37.7243 251.967 37.8612C252.46 37.9707 252.939 38.1487 253.404 38.3951L253.117 44.0631C252.597 43.7893 252.09 43.5839 251.597 43.447C251.104 43.3101 250.625 43.2417 250.16 43.2417C249.174 43.2417 248.325 43.5702 247.613 44.2274C246.929 44.8846 246.395 45.8566 246.011 47.1435C245.655 48.4031 245.477 49.9365 245.477 51.7436V59.5885H240.302Z" fill="#FAFCFE"/>
<path d="M264.599 60.1635C262.6 60.1635 260.807 59.7528 259.219 58.9313C257.658 58.0825 256.426 56.8229 255.522 55.1527C254.619 53.4824 254.167 51.3877 254.167 48.8686C254.167 46.3221 254.619 44.2137 255.522 42.5434C256.453 40.8732 257.699 39.6273 259.26 38.8058C260.848 37.9844 262.628 37.5737 264.599 37.5737C266.653 37.5737 268.46 37.9981 270.021 38.8469C271.582 39.6684 272.8 40.9279 273.676 42.6256C274.58 44.2959 275.032 46.3905 275.032 48.9096C275.032 51.4835 274.566 53.6056 273.635 55.2759C272.732 56.9188 271.486 58.1509 269.898 58.9724C268.337 59.7664 266.571 60.1635 264.599 60.1635ZM264.722 56.1384C265.79 56.1384 266.694 55.8783 267.433 55.358C268.173 54.8104 268.748 54.0163 269.158 52.9758C269.569 51.9079 269.774 50.6484 269.774 49.1972C269.774 47.6364 269.555 46.3084 269.117 45.2131C268.706 44.1179 268.104 43.269 267.31 42.6667C266.516 42.0643 265.571 41.7631 264.476 41.7631C263.436 41.7631 262.532 42.0506 261.765 42.6256C261.026 43.1732 260.451 43.981 260.04 45.0488C259.629 46.0893 259.424 47.3489 259.424 48.8275C259.424 51.1276 259.89 52.921 260.821 54.208C261.752 55.4949 263.052 56.1384 264.722 56.1384Z" fill="#FAFCFE"/>
<path d="M286.759 60.1635C285.362 60.1635 284.062 60.0129 282.857 59.7117C281.679 59.4379 280.653 58.9861 279.776 58.3563C278.9 57.7265 278.229 56.8914 277.764 55.8509C277.326 54.783 277.161 53.5098 277.271 52.0312L281.871 51.6204C281.871 52.7431 282.076 53.6467 282.487 54.3312C282.898 55.0157 283.473 55.5086 284.212 55.8098C284.979 56.111 285.883 56.2616 286.923 56.2616C288.155 56.2616 289.141 56.0562 289.88 55.6455C290.647 55.2348 291.03 54.6187 291.03 53.7973C291.03 53.2222 290.852 52.7705 290.496 52.4419C290.168 52.1133 289.634 51.8395 288.894 51.6204C288.183 51.4014 287.265 51.1686 286.143 50.9222C284.883 50.621 283.719 50.3198 282.651 50.0186C281.584 49.7174 280.653 49.3341 279.859 48.8686C279.064 48.4031 278.448 47.8144 278.01 47.1025C277.6 46.3632 277.394 45.4459 277.394 44.3506C277.394 42.9542 277.764 41.7494 278.503 40.7362C279.27 39.7231 280.31 38.9428 281.625 38.3951C282.966 37.8475 284.527 37.5737 286.307 37.5737C287.922 37.5737 289.415 37.8338 290.784 38.3541C292.18 38.8743 293.276 39.7094 294.07 40.8595C294.864 42.0095 295.179 43.5155 295.014 45.3774L290.496 45.8703C290.578 44.9119 290.428 44.1042 290.045 43.447C289.689 42.7899 289.155 42.3107 288.443 42.0095C287.758 41.6809 286.95 41.5166 286.019 41.5166C284.869 41.5166 283.952 41.7494 283.268 42.2149C282.61 42.653 282.282 43.2417 282.282 43.981C282.282 44.5834 282.487 45.0762 282.898 45.4596C283.309 45.8155 283.897 46.103 284.664 46.3221C285.458 46.5138 286.403 46.7328 287.498 46.9792C288.429 47.1435 289.387 47.3626 290.373 47.6364C291.386 47.9102 292.317 48.2936 293.166 48.7864C294.015 49.2519 294.699 49.8817 295.22 50.6758C295.74 51.4698 296 52.4829 296 53.7151C296 55.0294 295.63 56.1658 294.891 57.1241C294.179 58.0825 293.139 58.8355 291.77 59.3831C290.4 59.9034 288.73 60.1635 286.759 60.1635Z" fill="#FAFCFE"/>
</svg>
